<svg width="179" height="41" viewBox="0 0 179 41" fill="none" xmlns="http://www.w3.org/2000/svg">
<g clip-path="url(#clip0_412_183)">
<path d="M159 0.75H20C9.23045 0.75 0.5 9.48045 0.5 20.25C0.5 31.0196 9.23045 39.75 20 39.75H159C169.77 39.75 178.5 31.0196 178.5 20.25C178.5 9.48045 169.77 0.75 159 0.75Z" fill="white"/>
<mask id="mask0_412_183" style="mask-type:luminance" maskUnits="userSpaceOnUse" x="12" y="10" width="20" height="21">
<path d="M32 10.25H12V30.25H32V10.25Z" fill="white"/>
</mask>
<g mask="url(#mask0_412_183)">
<path d="M31.6 20.4773C31.6 19.7682 31.5364 19.0864 31.4182 18.4318H22V22.3H27.3818C27.15 23.55 26.4455 24.6091 25.3864 25.3182V27.8273H28.6182C30.5091 26.0864 31.6 23.5227 31.6 20.4773Z" fill="#4285F4"/>
<path d="M22 30.25C24.7 30.25 26.9636 29.3545 28.6181 27.8273L25.3863 25.3182C24.4909 25.9182 23.3454 26.2727 22 26.2727C19.3954 26.2727 17.1909 24.5136 16.4045 22.15H13.0636V24.7409C14.7091 28.0091 18.0909 30.25 22 30.25Z" fill="#34A853"/>
<path d="M16.4045 22.15C16.2045 21.55 16.0909 20.9091 16.0909 20.25C16.0909 19.5909 16.2045 18.95 16.4045 18.35V15.7591H13.0636C12.3864 17.1091 12 18.6364 12 20.25C12 21.8636 12.3864 23.3909 13.0636 24.7409L16.4045 22.15Z" fill="#FBBC04"/>
<path d="M22 14.2273C23.4681 14.2273 24.7863 14.7318 25.8227 15.7227L28.6909 12.8545C26.9591 11.2409 24.6954 10.25 22 10.25C18.0909 10.25 14.7091 12.4909 13.0636 15.7591L16.4045 18.35C17.1909 15.9864 19.3954 14.2273 22 14.2273Z" fill="#E94235"/>
</g>
<path d="M48.248 22.6865C48.248 22.4814 48.2161 22.2992 48.1523 22.1396C48.0931 21.9801 47.986 21.8343 47.8311 21.7021C47.6761 21.57 47.4574 21.4424 47.1748 21.3193C46.8968 21.1917 46.5413 21.0618 46.1084 20.9297C45.6344 20.7839 45.1969 20.6221 44.7959 20.4443C44.3994 20.262 44.0531 20.0524 43.7568 19.8154C43.4606 19.5739 43.2305 19.2982 43.0664 18.9883C42.9023 18.6738 42.8203 18.3115 42.8203 17.9014C42.8203 17.4958 42.9046 17.1266 43.0732 16.7939C43.2464 16.4613 43.4902 16.1742 43.8047 15.9326C44.1237 15.6865 44.4997 15.4974 44.9326 15.3652C45.3656 15.2285 45.8441 15.1602 46.3682 15.1602C47.1064 15.1602 47.7422 15.2969 48.2754 15.5703C48.8132 15.8438 49.2256 16.2106 49.5127 16.6709C49.8044 17.1312 49.9502 17.6393 49.9502 18.1953H48.248C48.248 17.8672 48.1774 17.5778 48.0361 17.3271C47.8994 17.0719 47.6898 16.8714 47.4072 16.7256C47.1292 16.5798 46.776 16.5068 46.3477 16.5068C45.9421 16.5068 45.6048 16.5684 45.3359 16.6914C45.0671 16.8145 44.8665 16.9808 44.7344 17.1904C44.6022 17.4001 44.5361 17.637 44.5361 17.9014C44.5361 18.0882 44.5794 18.2591 44.666 18.4141C44.7526 18.5645 44.8848 18.7057 45.0625 18.8379C45.2402 18.9655 45.4635 19.0863 45.7324 19.2002C46.0013 19.3141 46.318 19.4235 46.6826 19.5283C47.234 19.6924 47.7148 19.8747 48.125 20.0752C48.5352 20.2712 48.877 20.4945 49.1504 20.7451C49.4238 20.9958 49.6289 21.2806 49.7656 21.5996C49.9023 21.9141 49.9707 22.2718 49.9707 22.6729C49.9707 23.0921 49.8864 23.4704 49.7178 23.8076C49.5492 24.1403 49.3076 24.4251 48.9932 24.6621C48.6833 24.8945 48.3096 25.0745 47.8721 25.2021C47.4391 25.3252 46.9561 25.3867 46.4229 25.3867C45.9443 25.3867 45.4727 25.3229 45.0078 25.1953C44.5475 25.0677 44.1283 24.874 43.75 24.6143C43.3717 24.3499 43.071 24.0218 42.8477 23.6299C42.6243 23.2334 42.5127 22.7708 42.5127 22.2422H44.2285C44.2285 22.5658 44.2832 22.8415 44.3926 23.0693C44.5065 23.2972 44.6637 23.484 44.8643 23.6299C45.0648 23.7712 45.2972 23.876 45.5615 23.9443C45.8304 24.0127 46.1175 24.0469 46.4229 24.0469C46.8239 24.0469 47.1589 23.9899 47.4277 23.876C47.7012 23.762 47.9062 23.6025 48.043 23.3975C48.1797 23.1924 48.248 22.9554 48.248 22.6865ZM53.0879 17.8535V25.25H51.4336V17.8535H53.0879ZM51.3242 15.9121C51.3242 15.6615 51.4062 15.4541 51.5703 15.29C51.7389 15.1214 51.9714 15.0371 52.2676 15.0371C52.5592 15.0371 52.7894 15.1214 52.958 15.29C53.1266 15.4541 53.2109 15.6615 53.2109 15.9121C53.2109 16.1582 53.1266 16.3633 52.958 16.5273C52.7894 16.6914 52.5592 16.7734 52.2676 16.7734C51.9714 16.7734 51.7389 16.6914 51.5703 16.5273C51.4062 16.3633 51.3242 16.1582 51.3242 15.9121ZM59.6299 17.8535H61.127V25.0449C61.127 25.7103 60.9857 26.2754 60.7031 26.7402C60.4206 27.2051 60.0264 27.5583 59.5205 27.7998C59.0146 28.0459 58.429 28.1689 57.7637 28.1689C57.4811 28.1689 57.1667 28.1279 56.8203 28.0459C56.4785 27.9639 56.1458 27.8317 55.8223 27.6494C55.5033 27.4717 55.2367 27.237 55.0225 26.9453L55.7949 25.9746C56.0592 26.2891 56.3509 26.5192 56.6699 26.665C56.9889 26.8109 57.3239 26.8838 57.6748 26.8838C58.0531 26.8838 58.3743 26.8132 58.6387 26.6719C58.9076 26.5352 59.1149 26.3324 59.2607 26.0635C59.4066 25.7946 59.4795 25.4665 59.4795 25.0791V19.5283L59.6299 17.8535ZM54.6055 21.6338V21.4902C54.6055 20.9297 54.6738 20.4193 54.8105 19.959C54.9473 19.4941 55.1432 19.0954 55.3984 18.7627C55.6536 18.4255 55.9635 18.168 56.3281 17.9902C56.6927 17.8079 57.1051 17.7168 57.5654 17.7168C58.0439 17.7168 58.4518 17.8034 58.7891 17.9766C59.1309 18.1497 59.4157 18.3981 59.6436 18.7217C59.8714 19.0407 60.0492 19.4235 60.1768 19.8701C60.3089 20.3122 60.4069 20.8044 60.4707 21.3467V21.8047C60.4115 22.3333 60.3112 22.8164 60.1699 23.2539C60.0286 23.6914 59.8418 24.0697 59.6094 24.3887C59.377 24.7077 59.0898 24.9538 58.748 25.127C58.4108 25.3001 58.012 25.3867 57.5518 25.3867C57.1006 25.3867 56.6927 25.2933 56.3281 25.1064C55.9681 24.9196 55.6582 24.6576 55.3984 24.3203C55.1432 23.9831 54.9473 23.5866 54.8105 23.1309C54.6738 22.6706 54.6055 22.1715 54.6055 21.6338ZM56.2529 21.4902V21.6338C56.2529 21.971 56.2848 22.2855 56.3486 22.5771C56.417 22.8688 56.5195 23.1263 56.6562 23.3496C56.7975 23.5684 56.9753 23.7415 57.1895 23.8691C57.4082 23.9922 57.6657 24.0537 57.9619 24.0537C58.3493 24.0537 58.666 23.9717 58.9121 23.8076C59.1628 23.6436 59.3542 23.4225 59.4863 23.1445C59.623 22.862 59.7188 22.5475 59.7734 22.2012V20.9639C59.7461 20.695 59.6891 20.4443 59.6025 20.2119C59.5205 19.9795 59.4089 19.7767 59.2676 19.6035C59.1263 19.4258 58.9486 19.2891 58.7344 19.1934C58.5202 19.0931 58.2673 19.043 57.9756 19.043C57.6794 19.043 57.4219 19.1068 57.2031 19.2344C56.9844 19.362 56.8044 19.5374 56.6631 19.7607C56.5264 19.984 56.4238 20.2438 56.3555 20.54C56.2871 20.8363 56.2529 21.153 56.2529 21.4902ZM64.4697 19.4326V25.25H62.8223V17.8535H64.374L64.4697 19.4326ZM64.1758 21.2783L63.6426 21.2715C63.6471 20.7474 63.7201 20.2666 63.8613 19.8291C64.0072 19.3916 64.2077 19.0156 64.4629 18.7012C64.7227 18.3867 65.0326 18.1452 65.3926 17.9766C65.7526 17.8034 66.1536 17.7168 66.5957 17.7168C66.9512 17.7168 67.2725 17.7669 67.5596 17.8672C67.8512 17.9629 68.0996 18.1201 68.3047 18.3389C68.5143 18.5576 68.6738 18.8424 68.7832 19.1934C68.8926 19.5397 68.9473 19.9658 68.9473 20.4717V25.25H67.293V20.4648C67.293 20.1094 67.2406 19.8291 67.1357 19.624C67.0355 19.4144 66.8874 19.2663 66.6914 19.1797C66.5 19.0885 66.2607 19.043 65.9736 19.043C65.6911 19.043 65.4382 19.1022 65.2148 19.2207C64.9915 19.3392 64.8024 19.501 64.6475 19.7061C64.4971 19.9111 64.3809 20.1481 64.2988 20.417C64.2168 20.6859 64.1758 20.973 64.1758 21.2783ZM78.5654 23.5068V17.8535H80.2197V25.25H78.6611L78.5654 23.5068ZM78.7979 21.9688L79.3516 21.9551C79.3516 22.4518 79.2969 22.9098 79.1875 23.3291C79.0781 23.7438 78.9095 24.1061 78.6816 24.416C78.4538 24.7214 78.1621 24.9606 77.8066 25.1338C77.4512 25.3024 77.0251 25.3867 76.5283 25.3867C76.1683 25.3867 75.8379 25.3343 75.5371 25.2295C75.2363 25.1247 74.9766 24.9629 74.7578 24.7441C74.5436 24.5254 74.3773 24.2406 74.2588 23.8896C74.1403 23.5387 74.0811 23.1195 74.0811 22.6318V17.8535H75.7285V22.6455C75.7285 22.9144 75.7604 23.14 75.8242 23.3223C75.888 23.5 75.9746 23.6436 76.084 23.7529C76.1934 23.8623 76.321 23.9398 76.4668 23.9854C76.6126 24.0309 76.7676 24.0537 76.9316 24.0537C77.401 24.0537 77.7702 23.9626 78.0391 23.7803C78.3125 23.5934 78.5062 23.3428 78.6201 23.0283C78.7386 22.7139 78.7979 22.3607 78.7979 21.9688ZM83.5625 19.2754V28.0938H81.915V17.8535H83.4326L83.5625 19.2754ZM88.3818 21.4834V21.627C88.3818 22.1647 88.318 22.6637 88.1904 23.124C88.0674 23.5798 87.8828 23.9785 87.6367 24.3203C87.3952 24.6576 87.0967 24.9196 86.7412 25.1064C86.3857 25.2933 85.9756 25.3867 85.5107 25.3867C85.0505 25.3867 84.6471 25.3024 84.3008 25.1338C83.959 24.9606 83.6696 24.7168 83.4326 24.4023C83.1956 24.0879 83.0042 23.7188 82.8584 23.2949C82.7171 22.8665 82.6169 22.3971 82.5576 21.8867V21.333C82.6169 20.7907 82.7171 20.2985 82.8584 19.8564C83.0042 19.4144 83.1956 19.0339 83.4326 18.7148C83.6696 18.3958 83.959 18.1497 84.3008 17.9766C84.6426 17.8034 85.0413 17.7168 85.4971 17.7168C85.9619 17.7168 86.3743 17.8079 86.7344 17.9902C87.0944 18.168 87.3975 18.4232 87.6436 18.7559C87.8896 19.084 88.0742 19.4805 88.1973 19.9453C88.3203 20.4056 88.3818 20.9183 88.3818 21.4834ZM86.7344 21.627V21.4834C86.7344 21.1416 86.7025 20.8249 86.6387 20.5332C86.5749 20.237 86.4746 19.9772 86.3379 19.7539C86.2012 19.5306 86.0257 19.3574 85.8115 19.2344C85.6019 19.1068 85.349 19.043 85.0527 19.043C84.7611 19.043 84.5104 19.0931 84.3008 19.1934C84.0911 19.2891 83.9157 19.4235 83.7744 19.5967C83.6331 19.7699 83.5238 19.9727 83.4463 20.2051C83.3688 20.4329 83.3141 20.6813 83.2822 20.9502V22.2764C83.3369 22.6045 83.4303 22.9053 83.5625 23.1787C83.6947 23.4521 83.8815 23.6709 84.123 23.835C84.3691 23.9945 84.6836 24.0742 85.0664 24.0742C85.3626 24.0742 85.6156 24.0104 85.8252 23.8828C86.0348 23.7552 86.2057 23.5798 86.3379 23.3564C86.4746 23.1286 86.5749 22.8665 86.6387 22.5703C86.7025 22.2741 86.7344 21.9596 86.7344 21.627ZM95.2793 23.6094L96.9883 17.8535H98.041L97.7539 19.5762L96.0312 25.25H95.0879L95.2793 23.6094ZM94.2744 17.8535L95.6074 23.6367L95.7168 25.25H94.6641L92.6611 17.8535H94.2744ZM99.6406 23.5684L100.933 17.8535H102.539L100.543 25.25H99.4902L99.6406 23.5684ZM98.2188 17.8535L99.9072 23.541L100.119 25.25H99.1758L97.4326 19.5693L97.1455 17.8535H98.2188ZM105.424 17.8535V25.25H103.77V17.8535H105.424ZM103.66 15.9121C103.66 15.6615 103.742 15.4541 103.906 15.29C104.075 15.1214 104.307 15.0371 104.604 15.0371C104.895 15.0371 105.125 15.1214 105.294 15.29C105.463 15.4541 105.547 15.6615 105.547 15.9121C105.547 16.1582 105.463 16.3633 105.294 16.5273C105.125 16.6914 104.895 16.7734 104.604 16.7734C104.307 16.7734 104.075 16.6914 103.906 16.5273C103.742 16.3633 103.66 16.1582 103.66 15.9121ZM110.619 17.8535V19.0566H106.449V17.8535H110.619ZM107.652 16.042H109.3V23.2061C109.3 23.4339 109.332 23.6094 109.396 23.7324C109.464 23.8509 109.557 23.9307 109.676 23.9717C109.794 24.0127 109.933 24.0332 110.093 24.0332C110.207 24.0332 110.316 24.0264 110.421 24.0127C110.526 23.999 110.61 23.9854 110.674 23.9717L110.681 25.2295C110.544 25.2705 110.384 25.307 110.202 25.3389C110.024 25.3708 109.819 25.3867 109.587 25.3867C109.209 25.3867 108.874 25.3206 108.582 25.1885C108.29 25.0518 108.062 24.8307 107.898 24.5254C107.734 24.2201 107.652 23.8145 107.652 23.3086V16.042ZM113.518 14.75V25.25H111.877V14.75H113.518ZM113.23 21.2783L112.697 21.2715C112.702 20.7611 112.772 20.2894 112.909 19.8564C113.05 19.4235 113.246 19.0475 113.497 18.7285C113.752 18.4049 114.058 18.1566 114.413 17.9834C114.769 17.8057 115.163 17.7168 115.596 17.7168C115.96 17.7168 116.288 17.7669 116.58 17.8672C116.876 17.9674 117.132 18.1292 117.346 18.3525C117.56 18.5713 117.722 18.8584 117.831 19.2139C117.945 19.5648 118.002 19.9932 118.002 20.499V25.25H116.348V20.4854C116.348 20.1299 116.295 19.8473 116.19 19.6377C116.09 19.4281 115.942 19.2777 115.746 19.1865C115.55 19.0908 115.311 19.043 115.028 19.043C114.732 19.043 114.47 19.1022 114.242 19.2207C114.019 19.3392 113.832 19.501 113.682 19.7061C113.531 19.9111 113.417 20.1481 113.34 20.417C113.267 20.6859 113.23 20.973 113.23 21.2783ZM130.963 20.1641V23.9648C130.822 24.1517 130.601 24.3568 130.3 24.5801C130.004 24.7988 129.609 24.988 129.117 25.1475C128.625 25.307 128.012 25.3867 127.278 25.3867C126.654 25.3867 126.082 25.2819 125.562 25.0723C125.043 24.8581 124.594 24.5459 124.216 24.1357C123.842 23.7256 123.553 23.2266 123.348 22.6387C123.143 22.0462 123.04 21.3717 123.04 20.6152V19.9248C123.04 19.1729 123.133 18.5029 123.32 17.915C123.512 17.3226 123.785 16.8213 124.141 16.4111C124.496 16.001 124.924 15.6911 125.426 15.4814C125.932 15.2673 126.504 15.1602 127.142 15.1602C127.957 15.1602 128.632 15.2969 129.165 15.5703C129.703 15.8392 130.118 16.2129 130.409 16.6914C130.701 17.1699 130.885 17.7168 130.963 18.332H129.281C129.227 17.9857 129.119 17.6758 128.96 17.4023C128.805 17.1289 128.582 16.9147 128.29 16.7598C128.003 16.6003 127.629 16.5205 127.169 16.5205C126.772 16.5205 126.424 16.5957 126.123 16.7461C125.822 16.8965 125.572 17.1175 125.371 17.4092C125.175 17.7008 125.027 18.0563 124.927 18.4756C124.826 18.8949 124.776 19.3734 124.776 19.9111V20.6152C124.776 21.1621 124.833 21.6475 124.947 22.0713C125.066 22.4951 125.234 22.8529 125.453 23.1445C125.676 23.4362 125.948 23.6572 126.267 23.8076C126.586 23.9535 126.946 24.0264 127.347 24.0264C127.739 24.0264 128.06 23.9945 128.311 23.9307C128.561 23.8623 128.759 23.7826 128.905 23.6914C129.056 23.5957 129.172 23.5046 129.254 23.418V21.4424H127.183V20.1641H130.963ZM132.385 21.6338V21.4766C132.385 20.9434 132.462 20.4489 132.617 19.9932C132.772 19.5329 132.995 19.1341 133.287 18.7969C133.583 18.4551 133.943 18.1908 134.367 18.0039C134.796 17.8125 135.279 17.7168 135.816 17.7168C136.359 17.7168 136.842 17.8125 137.266 18.0039C137.694 18.1908 138.056 18.4551 138.353 18.7969C138.649 19.1341 138.874 19.5329 139.029 19.9932C139.184 20.4489 139.262 20.9434 139.262 21.4766V21.6338C139.262 22.167 139.184 22.6615 139.029 23.1172C138.874 23.5729 138.649 23.9717 138.353 24.3135C138.056 24.6507 137.696 24.915 137.272 25.1064C136.849 25.2933 136.368 25.3867 135.83 25.3867C135.288 25.3867 134.802 25.2933 134.374 25.1064C133.95 24.915 133.59 24.6507 133.294 24.3135C132.998 23.9717 132.772 23.5729 132.617 23.1172C132.462 22.6615 132.385 22.167 132.385 21.6338ZM134.032 21.4766V21.6338C134.032 21.9665 134.066 22.2809 134.135 22.5771C134.203 22.8734 134.31 23.1331 134.456 23.3564C134.602 23.5798 134.789 23.7552 135.017 23.8828C135.244 24.0104 135.516 24.0742 135.83 24.0742C136.135 24.0742 136.4 24.0104 136.623 23.8828C136.851 23.7552 137.038 23.5798 137.184 23.3564C137.329 23.1331 137.437 22.8734 137.505 22.5771C137.578 22.2809 137.614 21.9665 137.614 21.6338V21.4766C137.614 21.1484 137.578 20.8385 137.505 20.5469C137.437 20.2507 137.327 19.9886 137.177 19.7607C137.031 19.5329 136.844 19.3551 136.616 19.2275C136.393 19.0954 136.126 19.0293 135.816 19.0293C135.507 19.0293 135.238 19.0954 135.01 19.2275C134.786 19.3551 134.602 19.5329 134.456 19.7607C134.31 19.9886 134.203 20.2507 134.135 20.5469C134.066 20.8385 134.032 21.1484 134.032 21.4766ZM140.328 21.6338V21.4766C140.328 20.9434 140.406 20.4489 140.561 19.9932C140.715 19.5329 140.939 19.1341 141.23 18.7969C141.527 18.4551 141.887 18.1908 142.311 18.0039C142.739 17.8125 143.222 17.7168 143.76 17.7168C144.302 17.7168 144.785 17.8125 145.209 18.0039C145.637 18.1908 146 18.4551 146.296 18.7969C146.592 19.1341 146.818 19.5329 146.973 19.9932C147.128 20.4489 147.205 20.9434 147.205 21.4766V21.6338C147.205 22.167 147.128 22.6615 146.973 23.1172C146.818 23.5729 146.592 23.9717 146.296 24.3135C146 24.6507 145.64 24.915 145.216 25.1064C144.792 25.2933 144.311 25.3867 143.773 25.3867C143.231 25.3867 142.746 25.2933 142.317 25.1064C141.894 24.915 141.534 24.6507 141.237 24.3135C140.941 23.9717 140.715 23.5729 140.561 23.1172C140.406 22.6615 140.328 22.167 140.328 21.6338ZM141.976 21.4766V21.6338C141.976 21.9665 142.01 22.2809 142.078 22.5771C142.146 22.8734 142.254 23.1331 142.399 23.3564C142.545 23.5798 142.732 23.7552 142.96 23.8828C143.188 24.0104 143.459 24.0742 143.773 24.0742C144.079 24.0742 144.343 24.0104 144.566 23.8828C144.794 23.7552 144.981 23.5798 145.127 23.3564C145.273 23.1331 145.38 22.8734 145.448 22.5771C145.521 22.2809 145.558 21.9665 145.558 21.6338V21.4766C145.558 21.1484 145.521 20.8385 145.448 20.5469C145.38 20.2507 145.271 19.9886 145.12 19.7607C144.974 19.5329 144.787 19.3551 144.56 19.2275C144.336 19.0954 144.07 19.0293 143.76 19.0293C143.45 19.0293 143.181 19.0954 142.953 19.2275C142.73 19.3551 142.545 19.5329 142.399 19.7607C142.254 19.9886 142.146 20.2507 142.078 20.5469C142.01 20.8385 141.976 21.1484 141.976 21.4766ZM153.323 17.8535H154.82V25.0449C154.82 25.7103 154.679 26.2754 154.396 26.7402C154.114 27.2051 153.72 27.5583 153.214 27.7998C152.708 28.0459 152.122 28.1689 151.457 28.1689C151.174 28.1689 150.86 28.1279 150.514 28.0459C150.172 27.9639 149.839 27.8317 149.516 27.6494C149.197 27.4717 148.93 27.237 148.716 26.9453L149.488 25.9746C149.753 26.2891 150.044 26.5192 150.363 26.665C150.682 26.8109 151.017 26.8838 151.368 26.8838C151.746 26.8838 152.068 26.8132 152.332 26.6719C152.601 26.5352 152.808 26.3324 152.954 26.0635C153.1 25.7946 153.173 25.4665 153.173 25.0791V19.5283L153.323 17.8535ZM148.299 21.6338V21.4902C148.299 20.9297 148.367 20.4193 148.504 19.959C148.641 19.4941 148.837 19.0954 149.092 18.7627C149.347 18.4255 149.657 18.168 150.021 17.9902C150.386 17.8079 150.799 17.7168 151.259 17.7168C151.737 17.7168 152.145 17.8034 152.482 17.9766C152.824 18.1497 153.109 18.3981 153.337 18.7217C153.565 19.0407 153.743 19.4235 153.87 19.8701C154.002 20.3122 154.1 20.8044 154.164 21.3467V21.8047C154.105 22.3333 154.005 22.8164 153.863 23.2539C153.722 23.6914 153.535 24.0697 153.303 24.3887C153.07 24.7077 152.783 24.9538 152.441 25.127C152.104 25.3001 151.705 25.3867 151.245 25.3867C150.794 25.3867 150.386 25.2933 150.021 25.1064C149.661 24.9196 149.352 24.6576 149.092 24.3203C148.837 23.9831 148.641 23.5866 148.504 23.1309C148.367 22.6706 148.299 22.1715 148.299 21.6338ZM149.946 21.4902V21.6338C149.946 21.971 149.978 22.2855 150.042 22.5771C150.11 22.8688 150.213 23.1263 150.35 23.3496C150.491 23.5684 150.669 23.7415 150.883 23.8691C151.102 23.9922 151.359 24.0537 151.655 24.0537C152.043 24.0537 152.359 23.9717 152.605 23.8076C152.856 23.6436 153.048 23.4225 153.18 23.1445C153.316 22.862 153.412 22.5475 153.467 22.2012V20.9639C153.439 20.695 153.382 20.4443 153.296 20.2119C153.214 19.9795 153.102 19.7767 152.961 19.6035C152.82 19.4258 152.642 19.2891 152.428 19.1934C152.214 19.0931 151.961 19.043 151.669 19.043C151.373 19.043 151.115 19.1068 150.896 19.2344C150.678 19.362 150.498 19.5374 150.356 19.7607C150.22 19.984 150.117 20.2438 150.049 20.54C149.98 20.8363 149.946 21.153 149.946 21.4902ZM158.293 14.75V25.25H156.639V14.75H158.293ZM163.358 25.3867C162.812 25.3867 162.317 25.2979 161.875 25.1201C161.438 24.9378 161.064 24.6849 160.754 24.3613C160.449 24.0378 160.214 23.6572 160.05 23.2197C159.886 22.7822 159.804 22.3105 159.804 21.8047V21.5312C159.804 20.9525 159.888 20.4284 160.057 19.959C160.225 19.4896 160.46 19.0885 160.761 18.7559C161.062 18.4186 161.417 18.1611 161.827 17.9834C162.237 17.8057 162.682 17.7168 163.16 17.7168C163.689 17.7168 164.151 17.8057 164.548 17.9834C164.944 18.1611 165.272 18.4118 165.532 18.7354C165.797 19.0544 165.993 19.4349 166.12 19.877C166.252 20.319 166.318 20.8066 166.318 21.3398V22.0439H160.604V20.8613H164.691V20.7314C164.682 20.4352 164.623 20.1572 164.514 19.8975C164.409 19.6377 164.247 19.4281 164.028 19.2686C163.81 19.109 163.518 19.0293 163.153 19.0293C162.88 19.0293 162.636 19.0885 162.422 19.207C162.212 19.321 162.037 19.4873 161.896 19.7061C161.754 19.9248 161.645 20.1891 161.567 20.499C161.494 20.8044 161.458 21.1484 161.458 21.5312V21.8047C161.458 22.1283 161.501 22.429 161.588 22.707C161.679 22.9805 161.811 23.2197 161.984 23.4248C162.158 23.6299 162.367 23.7917 162.613 23.9102C162.859 24.0241 163.14 24.0811 163.454 24.0811C163.851 24.0811 164.204 24.0013 164.514 23.8418C164.824 23.6823 165.092 23.4567 165.32 23.165L166.188 24.0059C166.029 24.2383 165.822 24.4616 165.566 24.6758C165.311 24.8854 164.999 25.0563 164.63 25.1885C164.265 25.3206 163.841 25.3867 163.358 25.3867Z" fill="#1F1F1F"/>
<path d="M159 0.75H20C9.23045 0.75 0.5 9.48045 0.5 20.25C0.5 31.0196 9.23045 39.75 20 39.75H159C169.77 39.75 178.5 31.0196 178.5 20.25C178.5 9.48045 169.77 0.75 159 0.75Z" stroke="#747775"/>
</g>
<defs>
<clipPath id="clip0_412_183">
<rect width="179" height="40" fill="white" transform="translate(0 0.25)"/>
</clipPath>
</defs>
</svg>
